<svg version="1.2" xmlns="http://www.w3.org/2000/svg" viewBox="0 0 1510 1205" width="1510" height="1205">
	<style>
		.s0 { fill: #ffffff } 
	</style>
	<g>
		<path class="s0" d="m187.7 227.7l-124.7 124.8 19.2 0.6c10.6 0.4 62.7 0.8 115.8 0.9 53.1 0.2 129.7 0.6 170.3 0.9l73.7 0.6 117.5 117.4 117.5 117.4v148.4c0 123.9 0.2 148.9 1.4 151.6 0.8 1.9 42.6 44.3 103.2 104.7 107.4 107 143 141.7 144.1 140.6 1.8-1.8 2.3-60 2.9-344l0.7-305.8-66.4-66.4-66.4-66.4 124.3-124.3c68.3-68.3 124.2-124.5 124.2-125 0-0.4-164.8-0.7-366.2-0.7h-366.3z"/>
		<path class="s0" d="m1148.5 103.7c-1.2 0.2-58.3 56.6-127 125.3l-125 125h143 143l124.4-124.4 124.4-124.4-77.9-0.6c-134.3-1-202.8-1.3-204.9-0.9z"/>
	</g>
</svg>